<?xml version="1.0" encoding="UTF-8" standalone="no"?>
<!-- Created with Inkscape (http://www.inkscape.org/) -->

<svg
   xmlns:dc="http://purl.org/dc/elements/1.1/"
   xmlns:cc="http://creativecommons.org/ns#"
   xmlns:rdf="http://www.w3.org/1999/02/22-rdf-syntax-ns#"
   xmlns:svg="http://www.w3.org/2000/svg"
   xmlns="http://www.w3.org/2000/svg"
   xmlns:sodipodi="http://sodipodi.sourceforge.net/DTD/sodipodi-0.dtd"
   xmlns:inkscape="http://www.inkscape.org/namespaces/inkscape"
   width="210mm"
   height="297mm"
   viewBox="0 0 210 297"
   version="1.1"
   id="svg6253"
   inkscape:version="0.92.4 (5da689c313, 2019-01-14)"
   sodipodi:docname="cube.svg"
   inkscape:export-filename="D:\Personnel\dev\ue4\UE4_Labyrinthe\icons\cube.png"
   inkscape:export-xdpi="7.6799998"
   inkscape:export-ydpi="7.6799998">
  <defs
     id="defs6247" />
  <sodipodi:namedview
     id="base"
     pagecolor="#ffffff"
     bordercolor="#666666"
     borderopacity="1.0"
     inkscape:pageopacity="0.0"
     inkscape:pageshadow="2"
     inkscape:zoom="0.98994949"
     inkscape:cx="201.96768"
     inkscape:cy="526.25188"
     inkscape:document-units="mm"
     inkscape:current-layer="layer1"
     showgrid="false"
     inkscape:window-width="1920"
     inkscape:window-height="1017"
     inkscape:window-x="1912"
     inkscape:window-y="-8"
     inkscape:window-maximized="1" />
  <metadata
     id="metadata6250">
    <rdf:RDF>
      <cc:Work
         rdf:about="">
        <dc:format>image/svg+xml</dc:format>
        <dc:type
           rdf:resource="http://purl.org/dc/dcmitype/StillImage" />
        <dc:title></dc:title>
      </cc:Work>
    </rdf:RDF>
  </metadata>
  <g
     inkscape:label="Calque 1"
     inkscape:groupmode="layer"
     id="layer1">
    <rect
       style="fill:#000000;fill-opacity:1;stroke:none;stroke-width:9.41422939;stroke-linejoin:bevel;stroke-miterlimit:4;stroke-dasharray:none;stroke-opacity:1"
       id="rect6823"
       width="211.66667"
       height="211.66667"
       x="3.5527137e-15"
       y="85.333328" />
    <path
       style="fill:#ffffff;fill-opacity:1;stroke:none;stroke-width:0.26458332px;stroke-linecap:butt;stroke-linejoin:miter;stroke-opacity:1"
       d="m 102.6315,118.99849 -64.144688,32.07235 4.27631,75.63727 64.411958,38.4868 59.06656,-41.15949 6.41447,-76.17182 z"
       id="path6266"
       inkscape:connector-curvature="0" />
    <path
       style="fill:none;stroke:#000000;stroke-width:2.11666667;stroke-linecap:butt;stroke-linejoin:miter;stroke-opacity:1;stroke-miterlimit:4;stroke-dasharray:none"
       d="m 165.17257,149.19995 -7.65355,4.746 -16.78425,-7.97502 -6.28476,4.0387 16.06072,7.81844 -43.06838,25.31511 -59.601104,-32.07234 7.086574,-3.40966 12.464393,7.54562 5.326398,-3.15859 -11.994705,-7.43492 6.568249,-3.39344 15.674408,9.54342 -11.50602,6.7841 6.176844,3.69314 5.437101,-3.4393 6.646531,3.37724 -4.870138,3.14238 21.111989,11.18502 23.02825,-13.43898 -7.68596,-3.53379 -16.85977,9.96726 -7.128488,-3.84159 5.507178,-3.71619 -13.486122,-7.02347 4.629735,-2.80749 13.720147,6.68174 10.09138,-6.50618 15.76662,8.20987 5.08877,-2.77784 -23.2149,-11.58576 -9.01497,5.99486 -12.529243,-6.88232 -5.863297,3.55856 -15.53584,-9.34266 6.165977,-3.33245 11.513162,6.43598 5.637698,-3.22392 -11.014556,-6.48718 5.952648,-3.0479 6.1472,3.33138 5.658521,-3.38002 -6.085138,-2.8751 6.492748,-3.35038 11.75199,5.35096 -12.92112,7.22972 5.18855,2.29366 -6.79591,3.7053 4.81379,3.04771 7.47319,-4.69695 16.99879,8.2907 5.91195,-3.68197 -21.94687,-10.00515 6.77403,-3.71553 z"
       id="path6817"
       inkscape:connector-curvature="0"
       sodipodi:nodetypes="ccccccccccccccccccccccccccccccccccccccccccccccccccccccc" />
    <path
       style="fill:none;stroke:#000000;stroke-width:2.11666667;stroke-linecap:butt;stroke-linejoin:miter;stroke-opacity:1;stroke-miterlimit:4;stroke-dasharray:none"
       d="m 42.71131,158.56622 59.90922,31.84449 -0.18898,9.26042 -6.803575,-4.7247 -0.566965,8.88244 7.27604,4.25223 -0.0945,9.54389 -7.18155,-4.34672 -0.944939,10.77232 8.315469,3.96875 0.0945,10.77233 -8.031993,-5.29167 -0.566965,10.77232 8.693458,5.66964 -0.0945,9.26042 -57.263392,-34.20685 -0.566968,-15.30803 9.165923,3.77976 -0.566965,9.82738 6.898064,4.15773 0.472471,-11.33928 7.465031,4.06325 -1.039435,10.48884 6.047619,4.15773 0.755951,-11.24479 6.614583,3.40179 -0.755951,11.0558 6.425596,3.2128 4.346726,-49.70387 -7.370537,-3.2128 -3.212796,32.88393 -35.529762,-17.19792 10e-7,-6.61458 28.064731,13.60714 1.228423,-7.9375 -9.449406,-3.96875 0.755954,-10.01636 9.260414,4.91368 0.850448,-9.4494 -25.89137,-13.41816 0.283483,11.90625 10.01637,4.15774 -0.18899,10.01637 -15.402528,-6.33111 z"
       id="path6819"
       inkscape:connector-curvature="0"
       sodipodi:nodetypes="ccccccccccccccccccccccccccccccccccccccccccccc" />
    <path
       style="fill:none;stroke:#000000;stroke-width:2.11666656;stroke-linecap:butt;stroke-linejoin:miter;stroke-miterlimit:4;stroke-dasharray:none;stroke-opacity:1"
       d="m 169.18161,154.14444 -8.95353,5.47902 -0.26727,10.82442 -6.94901,4.81085 -0.26727,-9.75534 -42.09495,24.85607 0.40091,9.22079 35.94775,-22.18337 0.4009,8.28536 12.96258,-8.28536 -0.26728,9.2208 -17.23888,10.42351 -0.80181,-9.48807 -7.08264,4.67722 1.46998,7.61718 -9.48807,4.67722 -0.13363,-8.28535 -14.83345,9.6217 0.53453,9.35444 9.48807,-6.28084 -0.26727,7.34991 -9.6217,6.81537 v 6.68174 l 9.75533,-6.81537 -0.4009,8.95353 -10.82442,8.41899 -0.26727,18.97613 9.75534,-5.87993 -0.53454,-8.95353 7.21628,-4.81085 0.26727,9.35444 39.15498,-24.9897 -0.8018,-9.88898 -31.53781,22.04974 -0.26727,-8.81989 -6.5481,3.34086 -0.26727,-17.77342 10.69078,-5.21176 0.53454,7.08265 -6.81537,3.60814 0.53454,4.00904 5.47902,-2.13816 v 5.34539 l 8.15172,-3.4745 -1.60362,-10.15624 5.34539,-2.80633 0.93545,8.28535 13.22984,-6.68174 -0.53454,-6.81537 -6.1472,3.74177 -0.93544,-5.47902 -12.42804,5.7463 -0.4009,-6.81538 14.69983,-6.68174 1.06907,7.21628 5.7463,-3.4745 z"
       id="path6821"
       inkscape:connector-curvature="0"
       sodipodi:nodetypes="ccccccccccccccccccccccccccccccccccccccccccccccccccccccccc" />
  </g>
</svg>
