<?xml version="1.0" encoding="UTF-8" standalone="no"?>
<!-- Created with Inkscape (http://www.inkscape.org/) -->

<svg
   xmlns:dc="http://purl.org/dc/elements/1.1/"
   xmlns:cc="http://creativecommons.org/ns#"
   xmlns:rdf="http://www.w3.org/1999/02/22-rdf-syntax-ns#"
   xmlns:svg="http://www.w3.org/2000/svg"
   xmlns="http://www.w3.org/2000/svg"
   xmlns:sodipodi="http://sodipodi.sourceforge.net/DTD/sodipodi-0.dtd"
   xmlns:inkscape="http://www.inkscape.org/namespaces/inkscape"
   width="210mm"
   height="297mm"
   viewBox="0 0 210 297"
   version="1.1"
   id="svg5107"
   inkscape:version="0.92.4 (5da689c313, 2019-01-14)"
   sodipodi:docname="ice.svg">
  <defs
     id="defs5101" />
  <sodipodi:namedview
     id="base"
     pagecolor="#ffffff"
     bordercolor="#666666"
     borderopacity="1.0"
     inkscape:pageopacity="0.0"
     inkscape:pageshadow="2"
     inkscape:zoom="0.98994949"
     inkscape:cx="210.66855"
     inkscape:cy="482.18677"
     inkscape:document-units="mm"
     inkscape:current-layer="layer1"
     showgrid="false"
     inkscape:window-width="1920"
     inkscape:window-height="1017"
     inkscape:window-x="1912"
     inkscape:window-y="-8"
     inkscape:window-maximized="1" />
  <metadata
     id="metadata5104">
    <rdf:RDF>
      <cc:Work
         rdf:about="">
        <dc:format>image/svg+xml</dc:format>
        <dc:type
           rdf:resource="http://purl.org/dc/dcmitype/StillImage" />
        <dc:title></dc:title>
      </cc:Work>
    </rdf:RDF>
  </metadata>
  <g
     inkscape:label="Calque 1"
     inkscape:groupmode="layer"
     id="layer1">
    <rect
       style="fill:#000000;fill-opacity:1;stroke:none;stroke-width:3.19543815;stroke-linejoin:round;stroke-miterlimit:4;stroke-dasharray:none;stroke-opacity:1"
       id="rect5674"
       width="211.66667"
       height="211.66667"
       x="0"
       y="85.333336"
       inkscape:export-filename="C:\Users\damien.lachouette\ice.png"
       inkscape:export-xdpi="7.6799998"
       inkscape:export-ydpi="7.6799998" />
    <path
       style="fill:none;stroke:#ffffff;stroke-width:6;stroke-linecap:butt;stroke-linejoin:round;stroke-miterlimit:4;stroke-dasharray:none;stroke-opacity:1"
       d="m 39.55589,201.85205 c 0,0 -18.189003,1.47071 -17.907058,8.28535 0.280691,6.78434 18.441596,6.68174 18.441596,6.68174 v 0"
       id="path5120"
       inkscape:connector-curvature="0"
       sodipodi:nodetypes="cscc" />
    <path
       style="fill:none;stroke:#ffffff;stroke-width:6;stroke-linecap:butt;stroke-linejoin:miter;stroke-opacity:1;stroke-miterlimit:4;stroke-dasharray:none"
       d="m 46.504896,233.38985 c 0,0 -29.389732,2.19424 -30.201455,13.63075 -0.534384,7.52903 10.628887,9.15928 18.174329,9.35443 13.379301,0.34605 42.639473,-19.62372 56.126598,-5.07812 4.126166,4.44999 -11.95004,9.21433 -9.354432,14.69981 7.431328,15.70513 48.966514,12.70582 50.513934,-0.80179 0.73302,-6.39865 -8.60275,-11.11907 -4.27631,-13.36348 21.69413,-9.87403 24.22288,12.87356 48.64306,13.0962 9.45098,-0.18356 25.60922,-2.04511 25.92514,-11.49259 0.39023,-11.66968 -29.15327,-9.3183 -31.00326,-16.30344 -0.9517,-3.5934 9.48686,-6.29098 8.55262,-9.88897 -3.92596,-15.11985 18.93444,-15.64431 18.70887,-22.45064 -0.21645,-6.53102 -19.51068,-6.41447 -19.51068,-6.41447"
       id="path5665"
       inkscape:connector-curvature="0"
       sodipodi:nodetypes="csssssccssssc" />
    <path
       style="fill:none;stroke:#ffffff;stroke-width:6;stroke-linecap:butt;stroke-linejoin:miter;stroke-miterlimit:4;stroke-dasharray:none;stroke-opacity:1"
       d="m 51.315749,152.40718 c 0.04938,-5.66242 2.995917,-11.44718 6.949006,-15.50163 10.423513,-10.69078 10.290128,-10.90664 18.174329,-17.90706 2.908442,-2.58242 6.673146,-4.07933 10.423512,-4.27631 24.435564,-1.28341 39.031144,0.0146 64.144684,-0.53454 7.95158,-0.17387 17.84132,9.68611 17.90706,15.7689 0.2186,20.22497 -0.25538,41.01328 -0.80181,62.00653 -0.13724,5.27261 -0.86776,11.20932 -4.27631,15.23437 -4.14055,4.88945 -8.61117,8.34669 -16.30344,15.7689 -4.67662,4.51243 -10.60801,9.49089 -17.10525,9.35443 -20.23395,-0.42497 -40.464352,-0.71489 -60.135645,-0.26727 -8.201884,0.18664 -19.024893,-6.76323 -18.976135,-14.96709 0.126964,-21.36262 -0.258776,-35.00576 -1e-6,-64.67923 z"
       id="path5667"
       inkscape:connector-curvature="0"
       sodipodi:nodetypes="sssssssssssss" />
    <path
       style="fill:none;stroke:#ffffff;stroke-width:6;stroke-linecap:butt;stroke-linejoin:round;stroke-miterlimit:4;stroke-dasharray:none;stroke-opacity:1"
       d="m 105.83873,147.06179 c 25.43452,1.02316 31.51995,-5.62097 29.66692,33.14142 -0.0537,-38.26349 -1.17558,-27.92646 10.15624,-44.09947 -11.32816,16.98417 -12.87406,9.27774 -39.82316,10.95805 z"
       id="path5671"
       inkscape:connector-curvature="0"
       sodipodi:nodetypes="cccc" />
  </g>
</svg>
